# xmcd
#
# Track frame offsets:
#	150
#	77947
#	160505
#	245115
#
# Disc length: 3992 seconds
#
# Revision: 1
# Processed by: cddbd v1.5.1PL0 Copyright (c) Steve Scherf et al.
# Submitted via: CDex 1.50Beta5
#
DISCID=290f9604
DTITLE=PERFECT BLUE - DOUBLE BIND -The Looking Glass of PERFECT BLUE-
DYEAR=1900
DGENRE=
TTITLE0=Factor 9
TTITLE1=Factor 10
TTITLE2=Factor 11
TTITLE3=「盗聴鬼」 〜あるいは安土盗聴テープに残されたもう一つの事件〜
EXTD=
EXTT0=
EXTT1=
EXTT2=
EXTT3=
PLAYORDER=
